<?xml version="1.0" standalone="no"?>
<!DOCTYPE svg PUBLIC "-//W3C//DTD SVG 20010904//EN"
 "http://www.w3.org/TR/2001/REC-SVG-20010904/DTD/svg10.dtd">
<svg version="1.0" xmlns="http://www.w3.org/2000/svg"
 width="260.000000pt" height="260.000000pt" viewBox="0 0 260.000000 260.000000"
 preserveAspectRatio="xMidYMid meet">
<metadata>
Created by potrace 1.11, written by Peter Selinger 2001-2013
</metadata>
<g transform="translate(0.000000,260.000000) scale(0.100000,-0.100000)"
fill="#000000" stroke="none">
<path d="M1 2430 c0 -123 4 -170 12 -170 32 -1 497 2 770 4 169 2 307 1 308
-3 3 -17 10 -158 13 -251 2 -58 5 -117 8 -132 6 -31 -9 -39 -18 -10 -4 9 -12
31 -19 47 -7 17 -30 71 -50 121 -54 138 -37 127 -216 128 -209 0 -313 -16
-434 -67 -213 -90 -344 -324 -360 -645 -2 -29 -6 -56 -9 -59 -9 -9 -7 -133 2
-133 4 0 8 -26 8 -58 5 -245 122 -524 279 -665 11 -10 33 -30 48 -44 55 -48
190 -114 267 -129 14 -3 42 -9 63 -14 36 -8 228 -5 292 4 123 17 123 18 115
-19 -1 -5 -6 -30 -11 -55 -5 -25 -11 -58 -14 -75 -3 -16 -15 -67 -29 -113 -13
-45 -20 -84 -16 -87 4 -2 136 -4 293 -4 264 0 285 1 282 17 -2 9 -16 62 -30
117 -15 55 -28 109 -30 120 -1 11 -5 36 -9 55 -13 72 -16 96 -22 140 -3 25 -8
56 -11 70 -3 14 -7 242 -9 508 l-4 482 31 30 c45 42 109 78 171 94 51 14 189
15 236 3 38 -10 118 -69 157 -117 37 -43 103 -169 110 -207 37 -206 20 -385
-50 -540 -89 -194 -232 -298 -407 -296 -21 0 -38 -3 -38 -7 0 -7 32 -80 80
-185 10 -22 27 -60 38 -85 69 -156 92 -200 104 -200 20 0 162 94 242 159 65
53 117 105 186 186 63 73 144 213 175 300 9 28 21 59 26 70 12 30 29 98 44
184 13 72 14 367 2 431 -63 327 -245 609 -460 712 -88 43 -112 49 -202 53
-123 6 -270 -31 -375 -93 -25 -14 -50 -27 -56 -28 -9 -1 -12 37 -10 135 l1
136 550 1 c303 1 556 2 563 3 9 1 11 41 10 174 l-3 172 -1298 2 -1298 2 2
-169z m889 -662 c45 -13 101 -33 148 -54 29 -13 56 -24 61 -24 17 0 20 -87 19
-459 l0 -374 -27 -25 c-51 -48 -129 -70 -276 -76 -152 -6 -285 69 -364 208
-41 70 -79 173 -87 233 -3 26 -8 51 -10 55 -7 10 -6 178 1 208 3 14 7 35 9 47
9 48 47 114 88 155 80 79 198 118 343 113 44 -1 87 -4 95 -7z"/>
</g>
</svg>
