<?xml version="1.0" encoding="utf-8"?>
<!-- Generator: Adobe Illustrator 14.0.0, SVG Export Plug-In . SVG Version: 6.00 Build 43363)  -->
<!DOCTYPE svg PUBLIC "-//W3C//DTD SVG 1.0//EN" "http://www.w3.org/TR/2001/REC-SVG-20010904/DTD/svg10.dtd">
<svg version="1.0" id="Layer_1" xmlns="http://www.w3.org/2000/svg" xmlns:xlink="http://www.w3.org/1999/xlink" x="0px" y="0px"
	 width="911.333px" height="57.333px" viewBox="0 0 911.333 57.333" enable-background="new 0 0 911.333 57.333"
	 xml:space="preserve">
<path fill="#890F1E" d="M5.716,44.377c0,0,0.949-11.461,0-11.742c-0.613,2.031-0.27-17.375,0-12.188c0.418,2.156,0-8.186,0-8.186
	l6.123,0.092l14.382-0.096l0.4-0.627c2.843,0.863,15.664-0.332,14.721,0.75c5.427-0.588,21.364,0.414,18.17-0.805
	c18.897-0.092,29.105,1.08,52.076,0.488c8.181-1.037,30.6-0.699,45.341-0.811c28.822,0.434,47.445,0.822,76.902,1.156
	c17.716-1.445,44.188,0.496,63.252-0.32l5.221,0.574c12.67-0.912,32.021,0.205,49.801-0.688c4.356,0.252,6.643,0.33,7.653,0.352
	c-0.806,0.027-2.032,0.137-2.418,0.502c5.075-0.256,15.347,0.064,14.614-0.666l-1.29-0.074c-0.747-0.729,15.405,0.342,21.071-0.291
	l-3.106,0.781l9.617-0.131l-2.574-0.15c9.758,0.404,18.257,0.576,26.066,0.629c0.202-0.094,0.084-0.193-0.495-0.279l2.837,0.291
	c19.547,0.066,34.939-0.598,55.257-0.266c2.34-0.047,4.875-0.1,7.666-0.158l-2.467,0.266c2.035,0.051,4.129,0.113,6.276,0.184
	c1.4,0.021,2.698,0.027,3.827,0.01c-0.928-0.201,0.283-0.154,2.105-0.08c0.727-0.051,1.305-0.121,1.672-0.221
	c1.841-0.01,3.688-0.021,5.533-0.037c5.336-0.617,10.248-0.484,14.917-0.182c11.589-0.195,22.286-0.518,30.044-0.986l2.672,0.688
	c3.971-0.037,9.925-1.08,11.859-0.113l8.483,0.305c5.427-0.053,8.753,0.34,14.931-0.055l0.035-0.004l1.167-0.08l-0.068,0.057
	c12.284-0.305-0.122,0.619,13.944,0.221c2.703-0.293,3.965,0.078,6.009,0.389c2.642,0.01,5.295,0.02,7.956,0.025l4.762-0.686
	c12.421-0.564,14.545,0.426,32.539,0.43c8.641-0.352,12.816-1.195,7.092-1.945c7.869,0.908,3.58,0.592,14.018,1.027
	c1.607-0.375,0.494-0.455-1.812-0.787c9.271-0.438,5.72,0.334,12.709,0.312c2.032,0.701,4.371,1.822,6.643,1.863l-1.459,0.121
	c5.913,0.029,11.511,0.004,15.726-0.244c4.78-0.279,10.068,0.023,14.297,0.338l1.655,0.031l0.576-0.451l13.075,0.141l-1.793,0.119
	c3.072,0.061,13.154,0.217,18.918-0.02l-0.211-0.252c16.266-0.781,29.672,0.242,48.721,0.328l-2.5-0.512
	c6.486-0.51,1.777,0.787,9.51,0.533l0.385-0.633c6.809,0.828,8.803-0.176,13.491-0.486l-2.193,0.826l8.836-0.178
	c9.729-0.271,5.968-1.041,4.547-1.471l6.623,0.648l1.294-0.725c4.841,0.844,4.841-0.139,13.324,0.316
	c0.699-0.277-1.445-0.436,1.437-0.551l5.554,0.572l1.025,1.062c8.787,0.805,11.903-0.115,18.18,0.184c0,0,7.712-0.258,11.859-0.119
	c3.043,0.061,1.65-0.373,4.527-0.49c0.344,0.354,2.353,0.627,5.107,0.768c1.03,0.051,2.165,0.084,3.355,0.096
	c0,0,0.243,20.107-0.603,10.857c-0.899-1.205,0.125,14.209,0.528,9.902c0.668-2.436,0.074,11.141,0.074,11.141l-1.793,0.012
	l-14.382,0.094l-0.4,0.629c-2.843-0.863-15.663,0.332-14.722-0.752c-5.426,0.59-21.363-0.416-18.169,0.805
	c-18.897,0.092-29.105-1.078-52.076-0.486c-8.181,1.033-30.601,0.699-45.341,0.811c-28.822-0.436-47.445-0.824-76.902-1.156
	c-17.716,1.445-44.188-0.496-63.252,0.32l-5.221-0.574c-12.67,0.912-32.021-0.205-49.801,0.688
	c-4.356-0.254-6.643-0.334-7.653-0.352c0.806-0.027,2.032-0.137,2.418-0.502c-5.075,0.256-15.347-0.064-14.614,0.664l1.289,0.072
	c0.748,0.73-15.404-0.338-21.07,0.295l3.106-0.783l-9.617,0.133l2.574,0.15c-9.758-0.404-18.257-0.578-26.067-0.629
	c-0.201,0.092-0.084,0.191,0.496,0.279l-2.837-0.291c-19.547-0.068-34.939,0.596-55.258,0.264c-2.34,0.047-4.874,0.102-7.665,0.16
	l2.467-0.266c-2.035-0.051-4.129-0.113-6.277-0.184c-1.4-0.021-2.697-0.029-3.826-0.012c0.928,0.201-0.284,0.154-2.106,0.082
	c-0.727,0.049-1.305,0.119-1.672,0.219c-1.84,0.012-3.687,0.021-5.532,0.039c-5.336,0.617-10.248,0.482-14.917,0.182
	c-11.589,0.195-22.285,0.516-30.044,0.986l-2.672-0.689c-3.971,0.039-9.925,1.08-11.859,0.115l-8.483-0.305
	c-5.427,0.053-8.753-0.342-14.932,0.053l-0.034,0.004l-1.167,0.08l0.068-0.057c-12.284,0.305,0.122-0.617-13.944-0.221
	c-2.703,0.295-3.965-0.076-6.009-0.389c-2.643-0.008-5.295-0.018-7.956-0.025l-4.762,0.688c-12.421,0.562-14.545-0.426-32.539-0.43
	c-8.641,0.35-12.816,1.193-7.092,1.945c-7.869-0.908-3.58-0.592-14.018-1.027c-1.607,0.375-0.494,0.453,1.812,0.787
	c-9.271,0.438-5.72-0.336-12.709-0.312c-2.031-0.701-4.371-1.824-6.643-1.865l1.459-0.119c-5.913-0.027-11.511-0.004-15.726,0.242
	c-4.78,0.279-10.069-0.021-14.298-0.338l-1.654-0.029l-0.576,0.451l-13.075-0.143l1.792-0.121
	c-3.072-0.059-13.153-0.213-18.917,0.021l0.211,0.254c-16.265,0.779-29.672-0.244-48.721-0.328l2.5,0.512
	c-6.486,0.51-1.777-0.787-9.51-0.533l-0.386,0.631c-6.809-0.83-8.801,0.174-13.49,0.486l2.193-0.826l-8.836,0.176
	c-9.729,0.275-5.969,1.043-4.547,1.475l-6.623-0.648l-1.295,0.725c-4.84-0.844-4.84,0.137-13.324-0.318
	c-0.698,0.277,1.446,0.434-1.436,0.551l-13.988-1.025l8.435,0.455l-1.025-1.062c-8.787-0.807-11.903,0.115-18.18-0.184l4.323,0.318
	c-10.243-0.26-10.79,0.193-16.567,0.428c1.792-0.197,4.532-0.49,0.386-0.629c-3.043-0.059-1.651,0.373-4.528,0.49
	c-0.344-0.354-2.353-0.625-5.108-0.766c-1.377-0.068-2.941-0.105-4.578-0.105L5.716,44.377z"/>
</svg>
