<svg xmlns="http://www.w3.org/2000/svg" xmlns:xlink="http://www.w3.org/1999/xlink" preserveAspectRatio="xMidYMid" width="692.34" height="172" viewBox="0 0 692.34 172">
  <defs>
    <style>
      .cls-1 {
        fill: #89001e;
        fill-rule: evenodd;
      }
    </style>
  </defs>
  <path d="M682.314,76.866 C679.985,78.207 674.803,81.002 666.768,85.253 L650.175,94.164 C649.184,94.921 647.787,95.998 645.983,97.396 C636.317,104.677 629.680,108.316 626.071,108.316 C622.693,108.316 621.005,107.151 621.005,104.821 C621.005,102.143 622.634,99.973 625.896,98.313 C629.156,96.653 634.075,94.251 640.655,91.106 C643.974,88.544 649.184,85.021 656.288,80.536 L667.292,75.294 L673.755,70.926 L680.480,67.257 C681.411,67.141 683.653,66.383 687.205,64.986 C690.639,67.082 692.357,68.975 692.357,70.664 C692.357,70.956 689.009,73.023 682.314,76.866 ZM529.671,132.776 C515.697,137.961 507.429,142.211 504.868,145.531 C504.925,147.162 505.595,148.326 506.877,149.025 C509.846,150.715 516.104,151.558 525.654,151.558 C528.972,151.558 536.628,150.278 548.623,147.715 C564.692,144.338 579.421,140.813 592.814,137.144 C592.115,140.813 590.600,143.259 588.272,144.482 C585.827,145.823 576.832,148.793 561.286,153.393 C545.217,158.169 535.959,160.556 533.514,160.556 C532.698,160.556 529.977,160.746 525.348,161.124 C520.719,161.504 517.997,161.692 517.182,161.692 C512.407,161.692 507.051,160.556 501.113,158.285 C493.951,155.548 490.371,152.170 490.371,148.151 C490.371,143.027 491.971,139.446 495.174,137.406 C495.698,137.116 499.307,135.427 506.003,132.339 C520.034,125.992 531.796,121.828 541.286,119.847 C544.488,119.148 548.623,117.693 553.688,115.479 C559.452,112.858 563.527,111.199 565.915,110.500 L575.871,108.578 C579.189,107.879 582.100,106.249 584.604,103.686 C582.974,83.012 582.159,57.531 582.159,27.247 C582.159,10.008 583.498,0.923 586.176,-0.009 C588.388,0.982 589.814,1.884 590.456,2.699 C591.546,4.135 592.210,6.766 592.452,10.579 C592.402,11.463 592.377,18.123 592.377,30.566 L592.464,89.359 C592.464,96.173 593.017,103.249 594.124,110.587 C586.554,113.907 574.502,118.217 557.967,123.516 C542.422,128.526 532.990,131.612 529.671,132.776 ZM592.464,10.736 C592.461,10.681 592.456,10.633 592.452,10.579 C592.456,10.511 592.460,10.474 592.464,10.474 L592.464,10.736 ZM453.358,170.603 C453.241,171.534 452.310,172.000 450.563,172.000 C448.293,172.000 446.429,169.146 444.974,163.439 C443.867,159.071 443.315,155.199 443.315,151.821 C443.315,150.540 444.057,145.939 445.542,138.018 C447.026,130.098 447.769,125.525 447.769,124.302 C447.769,120.867 446.837,119.148 444.974,119.148 C442.586,119.148 437.492,121.216 429.691,125.351 C422.936,128.962 418.016,131.903 414.931,134.174 C409.050,138.485 402.384,144.978 394.931,153.655 C393.709,155.053 391.321,157.732 387.770,161.692 C386.373,163.147 383.607,163.905 379.473,163.963 L379.473,158.110 C379.473,155.374 384.829,149.346 395.543,140.027 C404.102,132.573 413.067,125.818 422.442,119.760 C435.599,111.199 445.381,106.918 451.786,106.918 C453.474,106.918 455.105,107.850 456.677,109.714 C458.249,111.578 459.035,113.441 459.035,115.304 C459.035,116.527 458.424,123.488 457.201,136.183 C456.153,146.725 454.871,158.198 453.358,170.603 ZM337.395,79.225 C339.142,75.032 341.034,72.935 343.072,72.935 C344.994,72.935 348.312,74.538 353.028,77.740 L353.116,78.089 C353.116,80.361 350.728,83.128 345.954,86.389 C344.557,85.982 341.704,83.593 337.395,79.225 ZM345.995,121.544 C345.981,121.527 345.968,121.514 345.954,121.507 C346.012,122.148 346.042,122.935 346.042,123.866 C346.042,128.002 345.634,134.873 344.819,144.482 C344.120,153.917 343.771,159.392 343.771,160.906 C340.976,162.478 338.472,163.265 336.260,163.265 C335.328,160.586 334.863,157.267 334.863,153.306 C334.863,131.291 337.599,119.615 343.072,118.275 C344.606,118.972 345.574,120.066 345.995,121.544 ZM345.995,121.544 C346.091,121.669 346.165,122.064 346.216,122.730 C346.181,122.307 346.101,121.916 345.995,121.544 ZM287.370,125.613 C287.370,126.779 287.515,128.380 287.807,130.418 C288.447,135.892 289.960,146.260 292.348,161.517 C292.231,162.042 291.242,162.623 289.379,163.265 C289.030,163.322 288.709,163.352 288.418,163.352 C282.305,163.352 278.345,156.306 276.541,142.211 C276.482,141.920 276.454,141.337 276.454,140.464 C276.454,137.727 276.598,132.107 276.890,123.604 C277.297,112.655 277.792,101.211 278.375,89.271 C278.550,84.729 279.218,76.285 280.384,63.937 C281.489,52.639 282.043,44.253 282.043,38.778 C282.043,22.064 283.148,10.386 285.362,3.747 L286.672,3.660 C286.846,3.660 286.991,3.660 287.108,3.660 C289.087,3.660 290.427,4.767 291.126,6.979 C291.650,8.436 292.202,10.474 292.785,13.094 L287.807,123.516 C287.515,123.750 287.370,124.449 287.370,125.613 ZM239.005,164.750 C238.073,164.750 234.929,161.954 229.572,156.363 C224.215,150.715 220.634,147.889 218.830,147.889 C218.830,148.007 212.484,150.453 199.791,155.227 C186.807,160.062 178.539,162.478 174.989,162.478 C172.076,162.478 168.845,161.052 165.294,158.198 C161.742,155.345 159.967,152.665 159.967,150.161 C159.967,143.696 167.041,136.155 181.189,127.535 C194.464,119.382 204.595,115.304 211.582,115.304 C214.492,115.304 217.112,116.964 219.442,120.284 L219.442,124.040 C218.276,125.730 216.938,126.574 215.424,126.574 C215.132,126.574 214.128,126.196 212.411,125.438 C210.693,124.682 209.660,124.302 209.311,124.302 C206.981,124.302 201.654,126.691 193.329,131.466 C185.410,135.951 180.111,139.300 177.434,141.512 C174.755,143.842 173.037,146.492 172.281,149.462 C174.319,151.384 176.735,152.345 179.530,152.345 C180.984,152.345 188.001,149.929 200.577,145.094 C213.095,140.202 220.664,137.756 223.284,137.756 C227.127,137.756 229.892,138.717 231.581,140.639 C231.988,141.105 233.473,143.726 236.035,148.501 C237.957,152.113 240.285,155.374 243.022,158.285 L243.022,162.216 C241.799,163.905 240.459,164.750 239.005,164.750 ZM215.599,89.184 L199.005,98.095 C198.015,98.852 196.617,99.929 194.813,101.327 C185.148,108.608 178.511,112.247 174.901,112.247 C171.524,112.247 169.836,111.083 169.836,108.752 C169.836,106.074 171.465,103.904 174.726,102.244 C177.986,100.584 182.906,98.182 189.486,95.037 C192.805,92.475 198.015,88.952 205.119,84.467 L216.123,79.225 L222.586,74.857 L229.310,71.188 C230.241,71.072 232.483,70.314 236.035,68.917 C239.470,71.013 241.188,72.907 241.188,74.595 C241.188,74.887 237.839,76.954 231.145,80.798 C228.815,82.138 223.634,84.933 215.599,89.184 ZM140.509,157.674 C139.518,157.674 137.160,156.917 133.435,155.402 C128.951,153.598 126.331,152.578 125.575,152.345 C122.313,151.530 117.394,150.802 110.815,150.161 C102.896,149.404 97.977,148.763 96.056,148.239 C86.798,145.967 75.415,143.318 61.908,140.289 C55.561,138.891 47.439,135.514 37.542,130.155 C25.431,123.575 19.376,118.159 19.376,113.907 C19.376,113.033 26.974,106.044 42.170,92.940 C58.705,78.672 67.467,71.043 68.458,70.052 C69.389,68.597 70.903,66.529 72.999,63.850 C73.581,63.326 78.327,58.988 87.235,50.833 C94.396,44.253 100.335,39.070 105.051,35.284 C112.387,29.343 118.907,25.034 124.614,22.354 C125.429,23.112 126.331,23.549 127.321,23.665 L127.321,30.042 L126.535,30.479 C122.110,33.158 117.772,36.216 113.523,39.652 C99.257,51.242 72.825,76.342 34.223,114.955 C45.634,123.109 61.384,129.166 81.471,133.126 C83.567,133.534 96.259,136.707 119.549,142.648 C122.401,143.347 127.874,144.687 135.968,146.666 C136.549,146.841 139.780,149.171 145.662,153.655 C144.264,156.334 142.546,157.674 140.509,157.674 ZM11.254,161.692 C10.322,162.623 8.634,163.090 6.188,163.090 C2.054,163.090 -0.012,161.605 -0.012,158.634 C-0.012,157.470 0.890,149.811 2.695,135.659 C3.451,130.360 5.693,115.072 9.420,89.796 C10.060,84.613 11.282,75.324 13.088,61.928 C14.601,51.388 16.785,42.331 19.638,34.759 C23.247,35.517 25.053,37.904 25.053,41.923 C25.053,42.564 25.023,43.146 24.965,43.670 L11.254,161.692 ZM656.376,105.345 C656.841,105.229 657.219,105.171 657.511,105.171 C660.946,105.171 662.983,106.336 663.624,108.665 C664.148,110.646 664.555,118.043 664.847,130.854 C664.963,136.388 665.022,140.988 665.022,144.657 C665.022,148.968 664.934,152.025 664.760,153.830 C664.701,154.703 663.740,158.169 661.878,164.226 C659.432,163.468 655.822,162.450 651.048,161.168 C650.699,155.170 650.524,149.317 650.524,143.609 C650.524,139.358 650.612,135.165 650.786,131.029 C651.485,114.723 653.348,106.162 656.376,105.345 Z" class="cls-1"/>
</svg>
